<?xml version="1.0" encoding="UTF-8" standalone="no"?>
<!DOCTYPE svg PUBLIC "-//W3C//DTD SVG 1.1//EN" "http://www.w3.org/Graphics/SVG/1.1/DTD/svg11.dtd">
<svg version="1.1" xmlns="http://www.w3.org/2000/svg" xmlns:xlink="http://www.w3.org/1999/xlink" preserveAspectRatio="xMidYMid meet" viewBox="0 0 640 640" width="640" height="640"><defs><path d="M512.02 160.51C523.07 160.51 532.02 169.46 532.02 180.51C532.02 237.25 532.02 387.47 532.02 444.21C532.02 455.26 523.07 464.21 512.02 464.21C420.13 464.21 164.47 464.21 72.58 464.21C61.54 464.21 52.58 455.26 52.58 444.21C52.58 387.47 52.58 237.25 52.58 180.51C52.58 169.46 61.54 160.51 72.58 160.51C164.47 160.51 420.13 160.51 512.02 160.51Z" id="a7dynDwCXq"></path><path d="M543.48 464.21C548.76 464.21 553.03 468.49 553.03 473.76C553.03 475.67 553.03 471.85 553.03 473.76C553.03 479.04 548.76 483.31 543.48 483.31C442.63 483.31 149.62 483.31 48.76 483.31C43.49 483.31 39.21 479.04 39.21 473.76C39.21 471.85 39.21 475.67 39.21 473.76C39.21 468.49 43.49 464.21 48.76 464.21C149.62 464.21 442.63 464.21 543.48 464.21Z" id="irG3Mnidc"></path><path d="M492.92 178.52C503.97 178.52 512.92 187.47 512.92 198.52C512.92 248.76 512.92 379.51 512.92 429.75C512.92 440.8 503.97 449.75 492.92 449.75C408.67 449.75 175.93 449.75 91.69 449.75C80.64 449.75 71.69 440.8 71.69 429.75C71.69 379.51 71.69 248.76 71.69 198.52C71.69 187.47 80.64 178.52 91.69 178.52C175.93 178.52 408.67 178.52 492.92 178.52Z" id="eSKZ4GiS9"></path><path d="M565.51 215.9C576.55 215.9 585.51 224.85 585.51 235.9C585.51 285.38 585.51 413.83 585.51 463.31C585.51 474.36 576.55 483.31 565.51 483.31C542.38 483.31 493.01 483.31 469.89 483.31C458.84 483.31 449.89 474.36 449.89 463.31C449.89 413.83 449.89 285.38 449.89 235.9C449.89 224.85 458.84 215.9 469.89 215.9C493.01 215.9 542.38 215.9 565.51 215.9Z" id="a2oiu1m8z9"></path><path d="M554.47 225.45C566.33 225.45 575.96 235.07 575.96 246.94C575.96 292.3 575.96 406.91 575.96 452.28C575.96 464.14 566.33 473.76 554.47 473.76C535.46 473.76 499.93 473.76 480.93 473.76C469.06 473.76 459.44 464.14 459.44 452.28C459.44 406.91 459.44 292.3 459.44 246.94C459.44 235.07 469.06 225.45 480.93 225.45C499.93 225.45 535.46 225.45 554.47 225.45Z" id="l1GCEZZNvS"></path><path d="M209.21 282.75L209.21 233.09L258.88 233.09L258.88 282.75L209.21 282.75ZM215.42 276.54L224.73 267.23L230.94 270.34L240.25 257.92L252.67 274.48L252.67 239.3L215.42 239.3L215.42 276.54ZM226.73 246.3L226.95 246.32L227.17 246.35L227.38 246.39L227.59 246.44L227.8 246.5L228 246.56L228.2 246.63L228.4 246.71L228.59 246.79L228.78 246.89L228.97 246.99L229.15 247.1L229.32 247.21L229.49 247.33L229.66 247.46L229.82 247.59L229.98 247.73L230.13 247.87L230.27 248.02L230.41 248.18L230.54 248.34L230.67 248.51L230.79 248.68L230.9 248.85L231.01 249.03L231.11 249.22L231.2 249.41L231.29 249.6L231.37 249.8L231.44 250L231.5 250.2L231.56 250.41L231.61 250.62L231.65 250.83L231.68 251.05L231.7 251.27L231.71 251.49L231.72 251.71L231.71 251.94L231.7 252.16L231.68 252.38L231.65 252.59L231.61 252.81L231.56 253.02L231.5 253.23L231.44 253.43L231.37 253.63L231.29 253.83L231.2 254.02L231.11 254.21L231.01 254.39L230.9 254.57L230.79 254.75L230.67 254.92L230.54 255.09L230.41 255.25L230.27 255.4L230.13 255.55L229.98 255.7L229.82 255.84L229.66 255.97L229.49 256.1L229.32 256.22L229.15 256.33L228.97 256.44L228.78 256.54L228.59 256.63L228.4 256.72L228.2 256.8L228 256.87L227.8 256.93L227.59 256.99L227.38 257.04L227.17 257.07L226.95 257.11L226.73 257.13L226.51 257.14L226.29 257.15L226.06 257.14L225.84 257.13L225.62 257.11L225.4 257.07L225.19 257.04L224.98 256.99L224.77 256.93L224.57 256.87L224.37 256.8L224.17 256.72L223.98 256.63L223.79 256.54L223.6 256.44L223.42 256.33L223.25 256.22L223.08 256.1L222.91 255.97L222.75 255.84L222.59 255.7L222.44 255.55L222.3 255.4L222.16 255.25L222.03 255.09L221.9 254.92L221.78 254.75L221.67 254.57L221.56 254.39L221.46 254.21L221.37 254.02L221.28 253.83L221.2 253.63L221.13 253.43L221.07 253.23L221.01 253.02L220.96 252.81L220.92 252.59L220.89 252.38L220.87 252.16L220.86 251.94L220.85 251.71L220.86 251.49L220.87 251.27L220.89 251.05L220.92 250.83L220.96 250.62L221.01 250.41L221.07 250.2L221.13 250L221.2 249.8L221.28 249.6L221.37 249.41L221.46 249.22L221.56 249.03L221.67 248.85L221.78 248.68L221.9 248.51L222.03 248.34L222.16 248.18L222.3 248.02L222.44 247.87L222.59 247.73L222.75 247.59L222.91 247.46L223.08 247.33L223.25 247.21L223.42 247.1L223.6 246.99L223.79 246.89L223.98 246.79L224.17 246.71L224.37 246.63L224.57 246.56L224.77 246.5L224.98 246.44L225.19 246.39L225.4 246.35L225.62 246.32L225.84 246.3L226.06 246.29L226.29 246.28L226.51 246.29L226.73 246.3Z" id="b71hxKB7ZR"></path><path d="M209.21 344.83L209.21 295.17L258.88 295.17L258.88 344.83L209.21 344.83ZM215.42 338.62L224.73 329.31L230.94 332.42L240.25 320L252.67 336.55L252.67 301.38L215.42 301.38L215.42 338.62ZM226.73 308.38L226.95 308.4L227.17 308.43L227.38 308.47L227.59 308.52L227.8 308.57L228 308.64L228.2 308.71L228.4 308.79L228.59 308.87L228.78 308.97L228.97 309.07L229.15 309.17L229.32 309.29L229.49 309.41L229.66 309.53L229.82 309.67L229.98 309.81L230.13 309.95L230.27 310.1L230.41 310.26L230.54 310.42L230.67 310.58L230.79 310.76L230.9 310.93L231.01 311.11L231.11 311.3L231.2 311.48L231.29 311.68L231.37 311.87L231.44 312.08L231.5 312.28L231.56 312.49L231.61 312.7L231.65 312.91L231.68 313.13L231.7 313.35L231.71 313.57L231.72 313.79L231.71 314.02L231.7 314.24L231.68 314.46L231.65 314.67L231.61 314.89L231.56 315.1L231.5 315.3L231.44 315.51L231.37 315.71L231.29 315.91L231.2 316.1L231.11 316.29L231.01 316.47L230.9 316.65L230.79 316.83L230.67 317L230.54 317.17L230.41 317.33L230.27 317.48L230.13 317.63L229.98 317.78L229.82 317.92L229.66 318.05L229.49 318.18L229.32 318.3L229.15 318.41L228.97 318.52L228.78 318.62L228.59 318.71L228.4 318.8L228.2 318.88L228 318.95L227.8 319.01L227.59 319.07L227.38 319.11L227.17 319.15L226.95 319.18L226.73 319.21L226.51 319.22L226.29 319.22L226.06 319.22L225.84 319.21L225.62 319.18L225.4 319.15L225.19 319.11L224.98 319.07L224.77 319.01L224.57 318.95L224.37 318.88L224.17 318.8L223.98 318.71L223.79 318.62L223.6 318.52L223.42 318.41L223.25 318.3L223.08 318.18L222.91 318.05L222.75 317.92L222.59 317.78L222.44 317.63L222.3 317.48L222.16 317.33L222.03 317.17L221.9 317L221.78 316.83L221.67 316.65L221.56 316.47L221.46 316.29L221.37 316.1L221.28 315.91L221.2 315.71L221.13 315.51L221.07 315.3L221.01 315.1L220.96 314.89L220.92 314.67L220.89 314.46L220.87 314.24L220.86 314.02L220.85 313.79L220.86 313.57L220.87 313.35L220.89 313.13L220.92 312.91L220.96 312.7L221.01 312.49L221.07 312.28L221.13 312.08L221.2 311.87L221.28 311.68L221.37 311.48L221.46 311.3L221.56 311.11L221.67 310.93L221.78 310.76L221.9 310.58L222.03 310.42L222.16 310.26L222.3 310.1L222.44 309.95L222.59 309.81L222.75 309.67L222.91 309.53L223.08 309.41L223.25 309.29L223.42 309.17L223.6 309.07L223.79 308.97L223.98 308.87L224.17 308.79L224.37 308.71L224.57 308.64L224.77 308.57L224.98 308.52L225.19 308.47L225.4 308.43L225.62 308.4L225.84 308.38L226.06 308.36L226.29 308.36L226.51 308.36L226.73 308.38Z" id="bM9RkTXB9"></path><path d="M209.21 406.8L209.21 357.13L258.88 357.13L258.88 406.8L209.21 406.8ZM215.42 400.59L224.73 391.28L230.94 394.38L240.25 381.97L252.67 398.52L252.67 363.34L215.42 363.34L215.42 400.59ZM226.73 370.34L226.95 370.37L227.17 370.4L227.38 370.44L227.59 370.48L227.8 370.54L228 370.6L228.2 370.67L228.4 370.75L228.59 370.84L228.78 370.93L228.97 371.03L229.15 371.14L229.32 371.25L229.49 371.37L229.66 371.5L229.82 371.63L229.98 371.77L230.13 371.92L230.27 372.07L230.41 372.22L230.54 372.38L230.67 372.55L230.79 372.72L230.9 372.9L231.01 373.08L231.11 373.26L231.2 373.45L231.29 373.64L231.37 373.84L231.44 374.04L231.5 374.25L231.56 374.45L231.61 374.66L231.65 374.88L231.68 375.09L231.7 375.31L231.71 375.53L231.72 375.76L231.71 375.98L231.7 376.2L231.68 376.42L231.65 376.64L231.61 376.85L231.56 377.06L231.5 377.27L231.44 377.48L231.37 377.68L231.29 377.87L231.2 378.07L231.11 378.25L231.01 378.44L230.9 378.62L230.79 378.8L230.67 378.97L230.54 379.13L230.41 379.29L230.27 379.45L230.13 379.6L229.98 379.74L229.82 379.88L229.66 380.02L229.49 380.14L229.32 380.26L229.15 380.38L228.97 380.48L228.78 380.58L228.59 380.68L228.4 380.76L228.2 380.84L228 380.91L227.8 380.98L227.59 381.03L227.38 381.08L227.17 381.12L226.95 381.15L226.73 381.17L226.51 381.19L226.29 381.19L226.06 381.19L225.84 381.17L225.62 381.15L225.4 381.12L225.19 381.08L224.98 381.03L224.77 380.98L224.57 380.91L224.37 380.84L224.17 380.76L223.98 380.68L223.79 380.58L223.6 380.48L223.42 380.38L223.25 380.26L223.08 380.14L222.91 380.02L222.75 379.88L222.59 379.74L222.44 379.6L222.3 379.45L222.16 379.29L222.03 379.13L221.9 378.97L221.78 378.8L221.67 378.62L221.56 378.44L221.46 378.25L221.37 378.07L221.28 377.87L221.2 377.68L221.13 377.48L221.07 377.27L221.01 377.06L220.96 376.85L220.92 376.64L220.89 376.42L220.87 376.2L220.86 375.98L220.85 375.76L220.86 375.53L220.87 375.31L220.89 375.09L220.92 374.88L220.96 374.66L221.01 374.45L221.07 374.25L221.13 374.04L221.2 373.84L221.28 373.64L221.37 373.45L221.46 373.26L221.56 373.08L221.67 372.9L221.78 372.72L221.9 372.55L222.03 372.38L222.16 372.22L222.3 372.07L222.44 371.92L222.59 371.77L222.75 371.63L222.91 371.5L223.08 371.37L223.25 371.25L223.42 371.14L223.6 371.03L223.79 370.93L223.98 370.84L224.17 370.75L224.37 370.67L224.57 370.6L224.77 370.54L224.98 370.48L225.19 370.44L225.4 370.4L225.62 370.37L225.84 370.34L226.06 370.33L226.29 370.33L226.51 370.33L226.73 370.34Z" id="hK2vSd7xM"></path><path d="M180.56 244.55L109.89 244.55" id="e1LvNTuxXq"></path><path d="M181.56 259.55L110.89 259.55" id="k31s7CRYN"></path><path d="M181.56 274.55L110.89 274.55" id="b8o8skq2WR"></path><path d="M182.56 289.55L111.89 289.55" id="a1nI8klIgi"></path><path d="M179.56 329.83L108.89 329.83" id="a5q0fD3iU"></path><path d="M180.56 344.83L109.89 344.83" id="bL6OXbxZQ"></path><path d="M179.56 361.85L108.89 361.85" id="aYefuuFmX"></path><path d="M180.56 376.85L109.89 376.85" id="d23uYpu0hi"></path></defs><g><g><g><use xlink:href="#a7dynDwCXq" opacity="1" fill="#0a2d32" fill-opacity="1"></use></g><g><use xlink:href="#irG3Mnidc" opacity="1" fill="#101f21" fill-opacity="1"></use></g><g><use xlink:href="#eSKZ4GiS9" opacity="1" fill="#ffffff" fill-opacity="1"></use></g><g><use xlink:href="#a2oiu1m8z9" opacity="1" fill="#091718" fill-opacity="1"></use></g><g><use xlink:href="#l1GCEZZNvS" opacity="1" fill="#ffffff" fill-opacity="1"></use></g><g><use xlink:href="#b71hxKB7ZR" opacity="1" fill="#214f51" fill-opacity="1"></use></g><g><use xlink:href="#bM9RkTXB9" opacity="1" fill="#214f51" fill-opacity="1"></use></g><g><use xlink:href="#hK2vSd7xM" opacity="1" fill="#214f51" fill-opacity="1"></use></g><g><g><use xlink:href="#e1LvNTuxXq" opacity="1" fill-opacity="0" stroke="#4a4747" stroke-width="3" stroke-opacity="1"></use></g></g><g><g><use xlink:href="#k31s7CRYN" opacity="1" fill-opacity="0" stroke="#4a4747" stroke-width="3" stroke-opacity="1"></use></g></g><g><g><use xlink:href="#b8o8skq2WR" opacity="1" fill-opacity="0" stroke="#4a4747" stroke-width="3" stroke-opacity="1"></use></g></g><g><g><use xlink:href="#a1nI8klIgi" opacity="1" fill-opacity="0" stroke="#4a4747" stroke-width="3" stroke-opacity="1"></use></g></g><g><g><use xlink:href="#a5q0fD3iU" opacity="1" fill-opacity="0" stroke="#4a4747" stroke-width="3" stroke-opacity="1"></use></g></g><g><g><use xlink:href="#bL6OXbxZQ" opacity="1" fill-opacity="0" stroke="#4a4747" stroke-width="3" stroke-opacity="1"></use></g></g><g><g><use xlink:href="#aYefuuFmX" opacity="1" fill-opacity="0" stroke="#4a4747" stroke-width="3" stroke-opacity="1"></use></g></g><g><g><use xlink:href="#d23uYpu0hi" opacity="1" fill-opacity="0" stroke="#4a4747" stroke-width="3" stroke-opacity="1"></use></g></g></g></g></svg>